ffmpeg started on 2026-04-01 at 12:25:13
Report written to "D:\Convert\FFMetrics\reports\psnr_report-6.txt"
Log level: 32
Command line:
ffmpeg -hide_banner -nostdin -r 24000/1001 -i "F:\\Convert\\files\\[DC] Make Heroine ga Oosugiru - 07_Telegram_HEVC(286).mkv" -r 24000/1001 -i "F:\\Convert\\files\\[DC] Make Heroine ga Oosugiru - 07_Telegram.mp4" -lavfi "[0:v]settb=AVTB,setpts=PTS-STARTPTS,format=pix_fmts=yuv420p10le,fps=24000/1001,scale=1920:1080:flags=lanczos:param0=3:out_range=limited:out_color_matrix=bt709:out_chroma_loc=left,setsar=1/1,setdar=(1920/1080)*(1/1),colorspace=format=yuv420p10:range=tv:primaries=bt709:trc=bt709:space=bt709:fast=0[main];[1:v]settb=AVTB,setpts=PTS-STARTPTS,format=pix_fmts=yuv420p,fps=24000/1001,scale=1920:1080:flags=lanczos:param0=3:out_range=limited:out_color_matrix=bt709:out_chroma_loc=left,setsar=1/1,setdar=(1920/1080)*(1/1),colorspace=format=yuv420p:range=tv:primaries=bt709:trc=bt709:space=bt709:fast=0[ref];[main][ref]psnr=eof_action=endall:stats_file='D\\:/Convert/FFMetrics/logs/psnr_logfile-6.txt'" -f null -
Input #0, matroska,webm, from 'F:\Convert\files\[DC] Make Heroine ga Oosugiru - 07_Telegram_HEVC(286).mkv':
  Metadata:
    COMPATIBLE_BRANDS: isomiso2avc1mp41
    MAJOR_BRAND     : isom
    MINOR_VERSION   : 512
    ENCODER         : Lavf61.7.100
  Duration: 00:24:06.79, start: -0.021000, bitrate: 1317 kb/s
  Stream #0:0: Video: hevc (Main 10), yuv420p10le(tv, bt709, progressive), 1920x1080 [SAR 1:1 DAR 16:9], 23.98 fps, 23.98 tbr, 1k tbn (default)
      Metadata:
        HANDLER_NAME    : VideoHandler
        VENDOR_ID       : [0][0][0][0]
        ENCODER         : Lavc61.19.100 libx265
        BPS             : 1120144
        DURATION        : 00:24:06.569708333
        NUMBER_OF_FRAMES: 34683
        NUMBER_OF_BYTES : 202545758
        _STATISTICS_WRITING_APP: mkvpropedit v94.0 ('Initiate') 64-bit
        _STATISTICS_WRITING_DATE_UTC: 2026-03-30 15:45:54
        _STATISTICS_TAGS: BPS DURATION NUMBER_OF_FRAMES NUMBER_OF_BYTES
  Stream #0:1: Audio: aac (LC), 48000 Hz, stereo, fltp (default)
      Metadata:
        HANDLER_NAME    : SoundHandler
        VENDOR_ID       : [0][0][0][0]
        ENCODER         : Lavc61.19.100 aac
        BPS             : 193194
        DURATION        : 00:24:06.784000000
        NUMBER_OF_FRAMES: 67819
        NUMBER_OF_BYTES : 34938755
        _STATISTICS_WRITING_APP: mkvpropedit v94.0 ('Initiate') 64-bit
        _STATISTICS_WRITING_DATE_UTC: 2026-03-30 15:45:54
        _STATISTICS_TAGS: BPS DURATION NUMBER_OF_FRAMES NUMBER_OF_BYTES
Input #1, mov,mp4,m4a,3gp,3g2,mj2, from 'F:\Convert\files\[DC] Make Heroine ga Oosugiru - 07_Telegram.mp4':
  Metadata:
    major_brand     : isom
    minor_version   : 512
    compatible_brands: isomiso2avc1mp41
    encoder         : Lavf60.16.100
  Duration: 00:24:06.74, start: 0.000000, bitrate: 3764 kb/s
  Stream #1:0[0x1](und): Video: h264 (High) (avc1 / 0x31637661), yuv420p(tv, bt709, progressive), 1920x1080 [SAR 1:1 DAR 16:9], 3616 kb/s, 23.98 fps, 23.98 tbr, 24k tbn (default)
      Metadata:
        handler_name    : VideoHandler
        vendor_id       : [0][0][0][0]
        encoder         : Lavc60.31.102 h264_qsv
  Stream #1:1[0x2](und): Audio: aac (HE-AACv2) (mp4a / 0x6134706D), 48000 Hz, stereo, fltp, 144 kb/s (default)
      Metadata:
        handler_name    : SoundHandler
        vendor_id       : [0][0][0][0]
Stream mapping:
  Stream #0:0 (hevc) -> settb:default
  Stream #1:0 (h264) -> settb:default
  psnr:default -> Stream #0:0 (wrapped_avframe)
  Stream #0:1 -> #0:1 (aac (native) -> pcm_s16le (native))
Output #0, null, to 'pipe:':
  Metadata:
    COMPATIBLE_BRANDS: isomiso2avc1mp41
    MAJOR_BRAND     : isom
    MINOR_VERSION   : 512
    encoder         : Lavf61.7.100
  Stream #0:0: Video: wrapped_avframe, yuv420p10le(tv, bt709, progressive), 1920x1080 [SAR 1:1 DAR 16:9], q=2-31, 200 kb/s, 23.98 fps, 23.98 tbn
      Metadata:
        encoder         : Lavc61.19.100 wrapped_avframe
  Stream #0:1: Audio: pcm_s16le, 48000 Hz, stereo, s16, 1536 kb/s (default)
      Metadata:
        HANDLER_NAME    : SoundHandler
        VENDOR_ID       : [0][0][0][0]
        _STATISTICS_TAGS: BPS DURATION NUMBER_OF_FRAMES NUMBER_OF_BYTES
        BPS             : 193194
        DURATION        : 00:24:06.784000000
        NUMBER_OF_FRAMES: 67819
        NUMBER_OF_BYTES : 34938755
        _STATISTICS_WRITING_APP: mkvpropedit v94.0 ('Initiate') 64-bit
        _STATISTICS_WRITING_DATE_UTC: 2026-03-30 15:45:54
        encoder         : Lavc61.19.100 pcm_s16le
frame=  124 fps=0.0 q=-0.0 size=N/A time=00:00:05.17 bitrate=N/A speed=10.1x    frame=  320 fps=313 q=-0.0 size=N/A time=00:00:13.34 bitrate=N/A speed=  13x    frame=  520 fps=339 q=-0.0 size=N/A time=00:00:21.68 bitrate=N/A speed=14.1x    frame=  729 fps=353 q=-0.0 size=N/A time=00:00:30.40 bitrate=N/A speed=14.7x    frame=  898 fps=349 q=-0.0 size=N/A time=00:00:37.45 bitrate=N/A speed=14.5x    frame= 1035 fps=335 q=-0.0 size=N/A time=00:00:43.16 bitrate=N/A speed=  14x    frame= 1198 fps=332 q=-0.0 size=N/A time=00:00:49.96 bitrate=N/A speed=13.8x    frame= 1347 fps=327 q=-0.0 size=N/A time=00:00:56.18 bitrate=N/A speed=13.6x    frame= 1506 fps=325 q=-0.0 size=N/A time=00:01:02.81 bitrate=N/A speed=13.6x    frame= 1634 fps=318 q=-0.0 size=N/A time=00:01:08.15 bitrate=N/A speed=13.2x    frame= 1777 fps=314 q=-0.0 size=N/A time=00:01:14.11 bitrate=N/A speed=13.1x    frame= 1904 fps=308 q=-0.0 size=N/A time=00:01:19.41 bitrate=N/A speed=12.8x    frame= 2040 fps=305 q=-0.0 size=N/A time=00:01:25.08 bitrate=N/A speed=12.7x    frame= 2142 fps=297 q=-0.0 size=N/A time=00:01:29.33 bitrate=N/A speed=12.4x    frame= 2270 fps=294 q=-0.0 size=N/A time=00:01:34.67 bitrate=N/A speed=12.2x    frame= 2405 fps=292 q=-0.0 size=N/A time=00:01:40.30 bitrate=N/A speed=12.2x    frame= 2530 fps=289 q=-0.0 size=N/A time=00:01:45.52 bitrate=N/A speed=  12x    frame= 2694 fps=290 q=-0.0 size=N/A time=00:01:52.36 bitrate=N/A speed=12.1x    frame= 2854 fps=291 q=-0.0 size=N/A time=00:01:59.03 bitrate=N/A speed=12.1x    frame= 3024 fps=293 q=-0.0 size=N/A time=00:02:06.12 bitrate=N/A speed=12.2x    frame= 3225 fps=297 q=-0.0 size=N/A time=00:02:14.50 bitrate=N/A speed=12.4x    frame= 3418 fps=301 q=-0.0 size=N/A time=00:02:22.55 bitrate=N/A speed=12.6x    frame= 3616 fps=305 q=-0.0 size=N/A time=00:02:30.81 bitrate=N/A speed=12.7x    frame= 3811 fps=308 q=-0.0 size=N/A time=00:02:38.95 bitrate=N/A speed=12.8x    frame= 4013 fps=311 q=-0.0 size=N/A time=00:02:47.37 bitrate=N/A speed=  13x    frame= 4202 fps=313 q=-0.0 size=N/A time=00:02:55.25 bitrate=N/A speed=13.1x    frame= 4393 fps=315 q=-0.0 size=N/A time=00:03:03.22 bitrate=N/A speed=13.2x    frame= 4585 fps=317 q=-0.0 size=N/A time=00:03:11.23 bitrate=N/A speed=13.2x    frame= 4789 fps=320 q=-0.0 size=N/A time=00:03:19.74 bitrate=N/A speed=13.3x    frame= 4982 fps=322 q=-0.0 size=N/A time=00:03:27.79 bitrate=N/A speed=13.4x    frame= 5167 fps=323 q=-0.0 size=N/A time=00:03:35.50 bitrate=N/A speed=13.5x    frame= 5368 fps=325 q=-0.0 size=N/A time=00:03:43.89 bitrate=N/A speed=13.6x    frame= 5556 fps=326 q=-0.0 size=N/A time=00:03:51.73 bitrate=N/A speed=13.6x    frame= 5741 fps=327 q=-0.0 size=N/A time=00:03:59.44 bitrate=N/A speed=13.7x    frame= 5932 fps=328 q=-0.0 size=N/A time=00:04:07.41 bitrate=N/A speed=13.7x    frame= 6122 fps=330 q=-0.0 size=N/A time=00:04:15.33 bitrate=N/A speed=13.7x    frame= 6312 fps=331 q=-0.0 size=N/A time=00:04:23.26 bitrate=N/A speed=13.8x    frame= 6487 fps=331 q=-0.0 size=N/A time=00:04:30.56 bitrate=N/A speed=13.8x    frame= 6648 fps=330 q=-0.0 size=N/A time=00:04:37.27 bitrate=N/A speed=13.8x    frame= 6774 fps=328 q=-0.0 size=N/A time=00:04:42.53 bitrate=N/A speed=13.7x    frame= 6890 fps=326 q=-0.0 size=N/A time=00:04:47.37 bitrate=N/A speed=13.6x    frame= 7038 fps=325 q=-0.0 size=N/A time=00:04:53.54 bitrate=N/A speed=13.6x    frame= 7163 fps=323 q=-0.0 size=N/A time=00:04:58.75 bitrate=N/A speed=13.5x    frame= 7312 fps=322 q=-0.0 size=N/A time=00:05:04.97 bitrate=N/A speed=13.4x    frame= 7482 fps=322 q=-0.0 size=N/A time=00:05:12.06 bitrate=N/A speed=13.4x    frame= 7638 fps=322 q=-0.0 size=N/A time=00:05:18.56 bitrate=N/A speed=13.4x    frame= 7836 fps=323 q=-0.0 size=N/A time=00:05:26.82 bitrate=N/A speed=13.5x    frame= 8015 fps=324 q=-0.0 size=N/A time=00:05:34.29 bitrate=N/A speed=13.5x    frame= 8190 fps=324 q=-0.0 size=N/A time=00:05:41.59 bitrate=N/A speed=13.5x    frame= 8380 fps=325 q=-0.0 size=N/A time=00:05:49.51 bitrate=N/A speed=13.6x    frame= 8563 fps=326 q=-0.0 size=N/A time=00:05:57.14 bitrate=N/A speed=13.6x    frame= 8765 fps=327 q=-0.0 size=N/A time=00:06:05.57 bitrate=N/A speed=13.6x    frame= 8955 fps=328 q=-0.0 size=N/A time=00:06:13.49 bitrate=N/A speed=13.7x    frame= 9143 fps=328 q=-0.0 size=N/A time=00:06:21.33 bitrate=N/A speed=13.7x    frame= 9338 fps=329 q=-0.0 size=N/A time=00:06:29.47 bitrate=N/A speed=13.7x    frame= 9521 fps=330 q=-0.0 size=N/A time=00:06:37.10 bitrate=N/A speed=13.7x    frame= 9704 fps=330 q=-0.0 size=N/A time=00:06:44.73 bitrate=N/A speed=13.8x    frame= 9896 fps=331 q=-0.0 size=N/A time=00:06:52.74 bitrate=N/A speed=13.8x    frame=10050 fps=330 q=-0.0 size=N/A time=00:06:59.16 bitrate=N/A speed=13.8x    frame=10240 fps=331 q=-0.0 size=N/A time=00:07:07.09 bitrate=N/A speed=13.8x    frame=10424 fps=331 q=-0.0 size=N/A time=00:07:14.76 bitrate=N/A speed=13.8x    frame=10607 fps=332 q=-0.0 size=N/A time=00:07:22.40 bitrate=N/A speed=13.8x    frame=10790 fps=332 q=-0.0 size=N/A time=00:07:30.03 bitrate=N/A speed=13.8x    frame=10983 fps=332 q=-0.0 size=N/A time=00:07:38.08 bitrate=N/A speed=13.9x    frame=11170 fps=333 q=-0.0 size=N/A time=00:07:45.88 bitrate=N/A speed=13.9x    frame=11356 fps=333 q=-0.0 size=N/A time=00:07:53.63 bitrate=N/A speed=13.9x    frame=11558 fps=334 q=-0.0 size=N/A time=00:08:02.06 bitrate=N/A speed=13.9x    frame=11752 fps=335 q=-0.0 size=N/A time=00:08:10.15 bitrate=N/A speed=  14x    frame=11924 fps=335 q=-0.0 size=N/A time=00:08:17.33 bitrate=N/A speed=  14x    frame=12093 fps=335 q=-0.0 size=N/A time=00:08:24.37 bitrate=N/A speed=  14x    frame=12275 fps=335 q=-0.0 size=N/A time=00:08:31.96 bitrate=N/A speed=  14x    frame=12464 fps=336 q=-0.0 size=N/A time=00:08:39.85 bitrate=N/A speed=  14x    frame=12669 fps=336 q=-0.0 size=N/A time=00:08:48.40 bitrate=N/A speed=  14x    frame=12864 fps=337 q=-0.0 size=N/A time=00:08:56.53 bitrate=N/A speed=  14x    frame=13055 fps=337 q=-0.0 size=N/A time=00:09:04.50 bitrate=N/A speed=14.1x    frame=13249 fps=338 q=-0.0 size=N/A time=00:09:12.59 bitrate=N/A speed=14.1x    frame=13439 fps=338 q=-0.0 size=N/A time=00:09:20.51 bitrate=N/A speed=14.1x    frame=13629 fps=339 q=-0.0 size=N/A time=00:09:28.44 bitrate=N/A speed=14.1x    frame=13824 fps=339 q=-0.0 size=N/A time=00:09:36.57 bitrate=N/A speed=14.1x    frame=14020 fps=339 q=-0.0 size=N/A time=00:09:44.75 bitrate=N/A speed=14.2x    frame=14183 fps=339 q=-0.0 size=N/A time=00:09:51.59 bitrate=N/A speed=14.1x    frame=14378 fps=340 q=-0.0 size=N/A time=00:09:59.68 bitrate=N/A speed=14.2x    frame=14559 fps=340 q=-0.0 size=N/A time=00:10:07.23 bitrate=N/A speed=14.2x    frame=14760 fps=340 q=-0.0 size=N/A time=00:10:15.61 bitrate=N/A speed=14.2x    frame=14951 fps=341 q=-0.0 size=N/A time=00:10:23.58 bitrate=N/A speed=14.2x    frame=15096 fps=340 q=-0.0 size=N/A time=00:10:29.62 bitrate=N/A speed=14.2x    frame=15264 fps=340 q=-0.0 size=N/A time=00:10:36.63 bitrate=N/A speed=14.2x    frame=15461 fps=340 q=-0.0 size=N/A time=00:10:44.85 bitrate=N/A speed=14.2x    frame=15644 fps=341 q=-0.0 size=N/A time=00:10:52.48 bitrate=N/A speed=14.2x    frame=15839 fps=341 q=-0.0 size=N/A time=00:11:00.61 bitrate=N/A speed=14.2x    frame=16037 fps=341 q=-0.0 size=N/A time=00:11:08.87 bitrate=N/A speed=14.2x    frame=16229 fps=342 q=-0.0 size=N/A time=00:11:16.88 bitrate=N/A speed=14.3x    frame=16422 fps=342 q=-0.0 size=N/A time=00:11:24.93 bitrate=N/A speed=14.3x    frame=16616 fps=342 q=-0.0 size=N/A time=00:11:33.02 bitrate=N/A speed=14.3x    frame=16807 fps=343 q=-0.0 size=N/A time=00:11:40.99 bitrate=N/A speed=14.3x    frame=17002 fps=343 q=-0.0 size=N/A time=00:11:49.12 bitrate=N/A speed=14.3x    frame=17191 fps=343 q=-0.0 size=N/A time=00:11:57.00 bitrate=N/A speed=14.3x    frame=17393 fps=344 q=-0.0 size=N/A time=00:12:05.43 bitrate=N/A speed=14.3x    frame=17580 fps=344 q=-0.0 size=N/A time=00:12:13.23 bitrate=N/A speed=14.4x    frame=17760 fps=344 q=-0.0 size=N/A time=00:12:20.74 bitrate=N/A speed=14.4x    frame=17952 fps=344 q=-0.0 size=N/A time=00:12:28.74 bitrate=N/A speed=14.4x    frame=18166 fps=345 q=-0.0 size=N/A time=00:12:37.67 bitrate=N/A speed=14.4x    frame=18338 fps=345 q=-0.0 size=N/A time=00:12:44.84 bitrate=N/A speed=14.4x    frame=18524 fps=345 q=-0.0 size=N/A time=00:12:52.60 bitrate=N/A speed=14.4x    frame=18717 fps=345 q=-0.0 size=N/A time=00:13:00.65 bitrate=N/A speed=14.4x    frame=18918 fps=346 q=-0.0 size=N/A time=00:13:09.07 bitrate=N/A speed=14.4x    frame=19114 fps=346 q=-0.0 size=N/A time=00:13:17.21 bitrate=N/A speed=14.4x    frame=19313 fps=347 q=-0.0 size=N/A time=00:13:25.51 bitrate=N/A speed=14.5x    frame=19499 fps=347 q=-0.0 size=N/A time=00:13:33.27 bitrate=N/A speed=14.5x    frame=19704 fps=347 q=-0.0 size=N/A time=00:13:41.82 bitrate=N/A speed=14.5x    frame=19903 fps=347 q=-0.0 size=N/A time=00:13:50.12 bitrate=N/A speed=14.5x    frame=20106 fps=348 q=-0.0 size=N/A time=00:13:58.58 bitrate=N/A speed=14.5x    frame=20300 fps=348 q=-0.0 size=N/A time=00:14:06.67 bitrate=N/A speed=14.5x    frame=20485 fps=348 q=-0.0 size=N/A time=00:14:14.39 bitrate=N/A speed=14.5x    frame=20645 fps=348 q=-0.0 size=N/A time=00:14:21.06 bitrate=N/A speed=14.5x    frame=20845 fps=348 q=-0.0 size=N/A time=00:14:29.41 bitrate=N/A speed=14.5x    frame=21035 fps=348 q=-0.0 size=N/A time=00:14:37.33 bitrate=N/A speed=14.5x    frame=21230 fps=349 q=-0.0 size=N/A time=00:14:45.46 bitrate=N/A speed=14.5x    frame=21431 fps=349 q=-0.0 size=N/A time=00:14:53.85 bitrate=N/A speed=14.6x    frame=21626 fps=349 q=-0.0 size=N/A time=00:15:01.98 bitrate=N/A speed=14.6x    frame=21818 fps=349 q=-0.0 size=N/A time=00:15:09.99 bitrate=N/A speed=14.6x    frame=22018 fps=350 q=-0.0 size=N/A time=00:15:18.33 bitrate=N/A speed=14.6x    frame=22204 fps=350 q=-0.0 size=N/A time=00:15:26.09 bitrate=N/A speed=14.6x    frame=22398 fps=350 q=-0.0 size=N/A time=00:15:34.18 bitrate=N/A speed=14.6x    frame=22592 fps=350 q=-0.0 size=N/A time=00:15:42.27 bitrate=N/A speed=14.6x    frame=22771 fps=350 q=-0.0 size=N/A time=00:15:49.74 bitrate=N/A speed=14.6x    frame=22953 fps=350 q=-0.0 size=N/A time=00:15:57.33 bitrate=N/A speed=14.6x    frame=23157 fps=351 q=-0.0 size=N/A time=00:16:05.83 bitrate=N/A speed=14.6x    frame=23347 fps=351 q=-0.0 size=N/A time=00:16:13.76 bitrate=N/A speed=14.6x    frame=23549 fps=351 q=-0.0 size=N/A time=00:16:22.18 bitrate=N/A speed=14.6x    frame=23748 fps=351 q=-0.0 size=N/A time=00:16:30.48 bitrate=N/A speed=14.6x    frame=23949 fps=351 q=-0.0 size=N/A time=00:16:38.87 bitrate=N/A speed=14.7x    frame=24138 fps=352 q=-0.0 size=N/A time=00:16:46.75 bitrate=N/A speed=14.7x    frame=24331 fps=352 q=-0.0 size=N/A time=00:16:54.80 bitrate=N/A speed=14.7x    frame=24521 fps=352 q=-0.0 size=N/A time=00:17:02.73 bitrate=N/A speed=14.7x    frame=24709 fps=352 q=-0.0 size=N/A time=00:17:10.57 bitrate=N/A speed=14.7x    frame=24903 fps=352 q=-0.0 size=N/A time=00:17:18.66 bitrate=N/A speed=14.7x    frame=25099 fps=352 q=-0.0 size=N/A time=00:17:26.83 bitrate=N/A speed=14.7x    frame=25295 fps=353 q=-0.0 size=N/A time=00:17:35.01 bitrate=N/A speed=14.7x    frame=25480 fps=353 q=-0.0 size=N/A time=00:17:42.72 bitrate=N/A speed=14.7x    frame=25674 fps=353 q=-0.0 size=N/A time=00:17:50.81 bitrate=N/A speed=14.7x    frame=25853 fps=353 q=-0.0 size=N/A time=00:17:58.28 bitrate=N/A speed=14.7x    frame=26034 fps=353 q=-0.0 size=N/A time=00:18:05.83 bitrate=N/A speed=14.7x    frame=26225 fps=353 q=-0.0 size=N/A time=00:18:13.80 bitrate=N/A speed=14.7x    frame=26420 fps=353 q=-0.0 size=N/A time=00:18:21.93 bitrate=N/A speed=14.7x    frame=26612 fps=353 q=-0.0 size=N/A time=00:18:29.94 bitrate=N/A speed=14.7x    frame=26809 fps=353 q=-0.0 size=N/A time=00:18:38.15 bitrate=N/A speed=14.7x    frame=26979 fps=353 q=-0.0 size=N/A time=00:18:45.24 bitrate=N/A speed=14.7x    frame=27152 fps=353 q=-0.0 size=N/A time=00:18:52.46 bitrate=N/A speed=14.7x    frame=27313 fps=353 q=-0.0 size=N/A time=00:18:59.17 bitrate=N/A speed=14.7x    frame=27490 fps=353 q=-0.0 size=N/A time=00:19:06.56 bitrate=N/A speed=14.7x    frame=27644 fps=352 q=-0.0 size=N/A time=00:19:12.98 bitrate=N/A speed=14.7x    frame=27822 fps=352 q=-0.0 size=N/A time=00:19:20.40 bitrate=N/A speed=14.7x    frame=27996 fps=352 q=-0.0 size=N/A time=00:19:27.66 bitrate=N/A speed=14.7x    frame=28164 fps=352 q=-0.0 size=N/A time=00:19:34.67 bitrate=N/A speed=14.7x    frame=28354 fps=352 q=-0.0 size=N/A time=00:19:42.59 bitrate=N/A speed=14.7x    frame=28523 fps=352 q=-0.0 size=N/A time=00:19:49.64 bitrate=N/A speed=14.7x    frame=28702 fps=352 q=-0.0 size=N/A time=00:19:57.11 bitrate=N/A speed=14.7x    frame=28858 fps=352 q=-0.0 size=N/A time=00:20:03.61 bitrate=N/A speed=14.7x    frame=29012 fps=351 q=-0.0 size=N/A time=00:20:10.04 bitrate=N/A speed=14.7x    frame=29174 fps=351 q=-0.0 size=N/A time=00:20:16.79 bitrate=N/A speed=14.6x    frame=29347 fps=351 q=-0.0 size=N/A time=00:20:24.01 bitrate=N/A speed=14.6x    frame=29491 fps=351 q=-0.0 size=N/A time=00:20:30.02 bitrate=N/A speed=14.6x    frame=29631 fps=350 q=-0.0 size=N/A time=00:20:35.85 bitrate=N/A speed=14.6x    frame=29786 fps=350 q=-0.0 size=N/A time=00:20:42.32 bitrate=N/A speed=14.6x    frame=29944 fps=350 q=-0.0 size=N/A time=00:20:48.91 bitrate=N/A speed=14.6x    frame=30101 fps=349 q=-0.0 size=N/A time=00:20:55.46 bitrate=N/A speed=14.6x    frame=30281 fps=349 q=-0.0 size=N/A time=00:21:02.97 bitrate=N/A speed=14.6x    frame=30457 fps=349 q=-0.0 size=N/A time=00:21:10.31 bitrate=N/A speed=14.6x    frame=30647 fps=349 q=-0.0 size=N/A time=00:21:18.23 bitrate=N/A speed=14.6x    frame=30830 fps=349 q=-0.0 size=N/A time=00:21:25.86 bitrate=N/A speed=14.6x    frame=31013 fps=349 q=-0.0 size=N/A time=00:21:33.50 bitrate=N/A speed=14.6x    frame=31190 fps=349 q=-0.0 size=N/A time=00:21:40.88 bitrate=N/A speed=14.6x    frame=31371 fps=349 q=-0.0 size=N/A time=00:21:48.43 bitrate=N/A speed=14.6x    frame=31542 fps=349 q=-0.0 size=N/A time=00:21:55.56 bitrate=N/A speed=14.6x    frame=31710 fps=349 q=-0.0 size=N/A time=00:22:02.57 bitrate=N/A speed=14.6x    frame=31879 fps=349 q=-0.0 size=N/A time=00:22:09.61 bitrate=N/A speed=14.6x    frame=32046 fps=349 q=-0.0 size=N/A time=00:22:16.58 bitrate=N/A speed=14.6x    frame=32232 fps=349 q=-0.0 size=N/A time=00:22:24.34 bitrate=N/A speed=14.6x    frame=32406 fps=349 q=-0.0 size=N/A time=00:22:31.60 bitrate=N/A speed=14.6x    frame=32569 fps=349 q=-0.0 size=N/A time=00:22:38.39 bitrate=N/A speed=14.5x    frame=32704 fps=348 q=-0.0 size=N/A time=00:22:44.02 bitrate=N/A speed=14.5x    frame=32844 fps=348 q=-0.0 size=N/A time=00:22:49.86 bitrate=N/A speed=14.5x    frame=33015 fps=348 q=-0.0 size=N/A time=00:22:57.00 bitrate=N/A speed=14.5x    frame=33177 fps=348 q=-0.0 size=N/A time=00:23:03.75 bitrate=N/A speed=14.5x    frame=33349 fps=347 q=-0.0 size=N/A time=00:23:10.93 bitrate=N/A speed=14.5x    frame=33495 fps=347 q=-0.0 size=N/A time=00:23:17.02 bitrate=N/A speed=14.5x    frame=33640 fps=347 q=-0.0 size=N/A time=00:23:23.06 bitrate=N/A speed=14.5x    frame=33760 fps=346 q=-0.0 size=N/A time=00:23:28.07 bitrate=N/A speed=14.4x    frame=33881 fps=346 q=-0.0 size=N/A time=00:23:33.12 bitrate=N/A speed=14.4x    frame=34033 fps=345 q=-0.0 size=N/A time=00:23:39.45 bitrate=N/A speed=14.4x    frame=34182 fps=345 q=-0.0 size=N/A time=00:23:45.67 bitrate=N/A speed=14.4x    frame=34315 fps=345 q=-0.0 size=N/A time=00:23:51.22 bitrate=N/A speed=14.4x    frame=34434 fps=344 q=-0.0 size=N/A time=00:23:56.18 bitrate=N/A speed=14.3x    frame=34601 fps=344 q=-0.0 size=N/A time=00:24:03.15 bitrate=N/A speed=14.3x    [Parsed_psnr_16 @ 000001ee0c5675c0] PSNR y:49.660413 u:51.005355 v:51.108231 average:50.077816 min:37.996511 max:inf
[out#0/null @ 000001ee7fbfdec0] video:14903KiB audio:271276KiB subtitle:0KiB other streams:0KiB global headers:0KiB muxing overhead: unknown
frame=34683 fps=344 q=-0.0 Lsize=N/A time=00:24:06.57 bitrate=N/A speed=14.3x    
